<svg width="100" height="100" viewBox="0 0 100 100" fill="none" xmlns="http://www.w3.org/2000/svg">
<g clip-path="url(#clip0_217_2)">
<rect width="100" height="100" rx="50" fill="white"/>
<rect x="2" y="20" width="96" height="60" rx="25" fill="#3A3D53"/>
<rect x="3" y="25" width="94" height="50" rx="25" fill="#B5B5F0"/>
<rect x="11" y="32" width="78" height="36" rx="18" fill="#C3DDFE"/>
<g filter="url(#filter0_dddddd_217_2)">
<path d="M9.3591 31.5932L8 31L8.54363 33.6107C9.196 33.8004 9.96312 35.1929 10.2652 35.8653H10.8088L12.7115 38.2385V39.3066C14.6143 39.8999 15.6109 43.6973 15.4297 44.1719C15.8646 44.2667 16.3358 44.6071 16.517 44.7651V45.5958C16.8794 45.5958 17.9365 48.1273 18.4197 49.3933C18.3593 49.3933 18.2748 49.5355 18.4197 50.1052C18.5647 50.6749 20.1714 52.3993 20.9567 53.1904V54.4959L23.2219 56.7505L23.8561 56.9879C24.3091 57.6603 25.2333 58.9102 25.3058 58.5305C25.3783 58.1505 25.5172 58.0557 25.5776 58.0557L26.4837 58.5305C26.4837 58.4118 26.5381 58.1505 26.7555 58.0557C27.0273 57.937 27.571 59.0051 27.571 58.5305C27.571 58.1505 27.7522 56.3152 27.8428 55.445L27.571 54.8518L27.8428 54.1398C27.7824 54.0211 27.6435 53.6653 27.571 53.1904C27.4985 52.7159 27.9032 52.3598 28.1146 52.2411L27.1179 50.8172L25.8495 50.461L25.5776 49.3933C25.0702 49.2981 24.883 48.0086 24.8528 47.3758H23.8561C23.6749 47.2175 23.2944 46.83 23.2219 46.5451C23.1313 46.1893 23.8561 46.0706 23.4937 45.5958C23.2037 44.9312 23.6145 44.6071 23.8561 44.528C23.3601 43.7269 23.097 43.1719 22.497 43.1038C21.2648 42.7241 20.4131 41.5216 20.1413 40.9679H19.507V40.3747L18.5103 39.3066L18.3291 39.544C18.1177 39.6232 17.7492 39.6863 17.9667 39.3066C16.372 37.313 14.5841 35.5487 13.8894 34.9159V34.2039L12.0773 32.0681C11.7873 32.4478 11.1108 32.2264 10.8088 32.0681L10.2652 32.5426L9.3591 31.5932Z" fill="#3B3F55"/>
<path d="M28.1147 48.6813C27.7523 48.871 27.0576 48.7601 26.7556 48.6813C26.7556 49.5355 27.2993 50.2239 27.5711 50.461L28.1147 51.5291C28.6583 51.4499 29.6188 51.1968 29.1114 50.8171C28.604 50.4374 28.2355 49.2349 28.1147 48.6813Z" fill="#3B3F55"/>
<path d="M27.2994 60.3103L26.4839 60.6664L27.1181 61.1409L27.843 60.9038L28.4772 61.497L28.8397 62.6838H30.6517C31.1653 63.2375 32.192 64.2026 32.192 63.6329C32.192 63.0635 33.0378 63.0001 33.4605 63.0397L35.1821 63.2771C35.9795 64.3213 37.8096 64.424 38.6251 64.3452L39.9843 64.9384L41.0715 64.3452C41.2165 64.8197 42.6421 65.2547 43.3365 65.4129L43.1555 63.2771C41.6333 63.4668 40.8904 63.1979 40.7091 63.0397L39.0781 60.9038H37.7192C37.6467 60.5241 36.964 60.1919 36.6317 60.0731L35.8163 61.1409H32.917L32.645 60.6664C32.5544 60.3103 32.2645 59.6222 31.8296 59.717C31.3946 59.8119 30.8632 59.3612 30.6517 59.1238L29.8363 58.8864C29.7638 59.7409 29.4437 59.2425 29.2927 58.8864H28.1148L27.2994 60.3103Z" fill="#3B3F55"/>
<path d="M40.8901 61.1409L40.165 61.6157C41.0349 62.8499 42.0376 61.8136 42.4304 61.1409H40.8901Z" fill="#3B3F55"/>
<path d="M44.6049 63.989C44.458 64.3479 43.699 64.4635 43.699 64.4635C43.699 64.4635 43.4129 64.9145 43.8801 64.8196C44.3473 64.7248 44.4372 65.1758 44.4238 65.4129L44.7862 65.8877L45.1486 65.1758C45.4385 65.1758 45.511 64.7009 45.511 64.4635L45.5044 64.4566C45.2022 64.14 44.7409 63.6567 44.6049 63.989Z" fill="#3B3F55"/>
<path d="M46.8701 64.3451L46.2357 64.8196L46.145 65.8877H47.0512L47.4136 64.4635L46.8701 64.3451Z" fill="#3B3F55"/>
<path d="M47.595 65.1758V65.8878C47.8848 66.4572 48.803 66.204 49.2259 66.0065C49.3768 65.9669 49.8056 65.8639 50.3131 65.7691C50.9472 65.6504 50.0414 65.1758 49.4976 65.4129C48.9176 65.2233 48.652 64.9384 48.5915 64.8197L47.595 65.1758Z" fill="#3B3F55"/>
<path d="M50.0414 64.2264H49.3163C49.3163 64.6061 49.9808 64.8593 50.3131 64.9384C50.4219 65.4129 51.1438 65.6899 51.491 65.7691C51.6118 65.8482 51.8896 65.8403 52.0347 65.1758C52.1795 64.5113 50.9472 64.424 50.3131 64.4635L50.0414 64.2264Z" fill="#3B3F55"/>
<path d="M53.4842 66.8372L51.7626 67.3117C51.7626 67.8814 52.4876 68.1819 52.85 68.2611C53.5023 69.4001 54.6319 68.973 55.1151 68.6169L53.4842 66.8372Z" fill="#3B3F55"/>
<path d="M33.1885 42.5104C33.1885 41.7511 33.7925 40.5326 34.0946 40.0185C34.1733 40.7593 34.6261 41.0253 34.5474 41.2053C35.3581 42.0403 36.4282 43.4231 36.4504 42.7479C36.4722 42.0771 38.1114 42.3126 38.8968 42.5104V42.0359L39.8026 40.8491H40.437L40.6181 41.2053C41.0381 41.7005 41.3146 41.6597 41.796 41.6798L42.521 40.8491C42.8941 41.2357 43.1106 41.3306 43.5176 41.2053L44.0613 40.2559L44.2424 39.1878C44.4237 39.1878 44.768 39.0217 44.6954 38.3571C44.6229 37.6926 45.088 37.3682 45.3296 37.2891V35.3906L46.2357 34.4413C46.9304 34.4808 48.356 34.5361 48.501 34.4413C48.6821 34.3225 49.7693 35.9839 49.4976 35.9839H48.3197L48.6821 36.6958V38.3571L50.0413 39.6626C50.2586 40.9914 51.0379 42.1151 51.4003 42.5104C50.0957 42.2256 49.3466 42.8666 49.1352 43.2224V46.7825C48.58 47.4429 47.028 48.6445 47.0512 49.037C47.0906 49.7034 46.6464 52.3151 46.2357 53.5465L43.5176 54.1397L43.2458 53.1903C42.6418 52.7949 41.361 52.0987 41.0712 52.4784C40.7813 52.8581 39.6216 52.8738 39.0778 52.8345L38.5344 52.0039H35.9973C35.4898 51.0545 35.0005 48.9183 34.8194 47.9689C33.1479 46.1085 33.9431 45.1563 34.0767 45.1127C33.9498 44.9487 33.1885 43.3807 33.1885 42.5104Z" fill="#3B3F55"/>
<path d="M53.1218 58.4118H54.1184C54.4085 58.1269 53.8165 57.3437 53.4842 56.9879L54.1184 56.1572L53.756 54.9704L54.2997 54.1398V52.5972L53.756 51.7665C54.2635 49.5829 55.1755 51.015 55.5683 52.0039L55.0245 53.1904L56.3837 54.733L56.1117 55.6824C56.4139 56.1177 57.0179 56.8218 57.0179 56.1572C57.0179 55.4927 58.2261 55.0891 58.8301 54.9704L57.6523 53.1904V52.0039C55.4776 49.3458 56.3232 48.7601 57.0179 48.7997C57.5253 47.3758 59.0413 47.0988 59.736 47.1383C59.8872 46.6638 60.0443 45.8093 59.4643 46.1893C58.8845 46.569 56.8669 46.9804 55.9307 47.1383C55.3507 49.0371 54.0581 46.9804 53.4842 45.7144C53.7741 43.5312 54.5112 43.3016 54.8435 43.4599C55.1453 43.7764 55.7856 44.2905 55.9307 43.8157C56.0757 43.3412 56.4744 43.6182 56.6555 43.8157H59.0112L59.4643 44.0531L61.7293 43.8157L62.9979 41.6798C63.2155 39.7811 62.2429 40.8888 61.7293 41.6798L61.1859 42.036L60.6421 42.5105H58.5581H58.1957C57.8032 42.5105 56.8912 42.4157 56.3837 42.036C55.8763 41.656 55.1453 41.6403 54.8435 41.6798L54.2997 42.8666H53.756L52.8501 44.4093V46.1893L52.2157 47.3758V49.5119C52.0949 49.5119 51.8714 49.5594 51.944 49.749C52.0165 49.939 51.6117 51.3312 51.4002 52.0039C51.3096 52.6367 51.2373 53.8314 51.6722 53.5465C52.2157 53.1904 52.8501 52.5972 52.5781 53.1904C52.3608 53.6652 52.4877 54.4168 52.5781 54.733C52.548 55.0496 52.5056 55.9434 52.5781 56.9879C52.6688 58.2931 52.7594 58.4118 53.1218 58.4118Z" fill="#3B3F55"/>
<path d="M57.9239 57.9369C57.8332 57.5019 57.7607 56.4894 58.1956 55.9197C58.2562 55.6415 58.5036 55.2998 59.0111 56.1571C59.5186 57.0142 58.4978 57.7007 57.9239 57.9369Z" fill="#3B3F55"/>
<path d="M64.3572 52.241L64.9006 53.5465C65.9881 54.1159 66.6222 53.3091 66.8036 52.8346L66.0785 52.0039L64.3572 52.241Z" fill="#3B3F55"/>
<path d="M73.5082 48.2066L72.8738 47.1385C73.8162 48.0879 74.2935 47.0597 74.4143 46.4265H75.1391L75.6826 45.4772L76.6794 45.3588C76.921 45.5167 77.4586 45.952 77.6759 46.4265C77.9479 47.0201 78.8538 45.952 78.8538 46.4265C78.8538 46.8062 79.3373 47.455 79.5789 47.732L79.3069 49.1559C79.2767 49.5909 79.2887 50.5798 79.5789 51.0547C79.9413 51.6479 79.9413 50.4611 80.1223 51.0547C80.2674 51.5292 81.2098 52.439 81.6626 52.8347L83.2935 51.0547L83.6559 49.8679L84.9245 49.5121C85.0151 48.9185 85.3231 47.8269 85.8306 48.2066C86.9178 49.0611 90.3306 50.4611 91.9013 51.0547V59.8358L91.6293 60.5478C91.9615 63.2376 92.3725 68.0476 91.3576 65.7692C90.3429 63.4907 88.9415 64.4244 88.3677 65.1759L85.8306 64.5824L87.2802 62.0904L88.0053 62.4465V61.2597C87.5703 60.7852 86.6762 58.5306 86.2837 57.4626C85.8005 56.8693 84.5983 55.6825 83.6559 55.6825H81.6626C78.4733 54.1638 78.3405 52.7556 78.6727 52.2412L78.129 52.8347V54.1399C77.1927 54.3378 75.5922 54.6144 76.6794 54.1399C77.7666 53.6654 76.2263 52.3599 75.3202 51.7666L75.7732 51.0547L76.6794 51.7666L77.6759 50.4611C78.5458 51.7902 78.7029 50.3823 78.6727 49.5121L76.317 50.4611L74.686 48.2066H73.5082Z" fill="#3B3F55"/>
<path d="M67.4377 44.4094C66.9302 44.5991 67.0451 42.9064 67.1659 42.0361C67.2561 41.3283 67.5251 39.8463 67.8843 39.5492C67.8862 39.5055 67.8883 39.4641 67.8907 39.4254C68.0417 39.3463 68.2531 39.2593 67.8907 39.5441C67.8886 39.5457 67.8865 39.5473 67.8843 39.5492C67.8609 40.0846 67.8707 40.9373 68.0721 40.8493C68.2894 40.7545 68.1022 41.2846 67.9814 41.5613C67.619 42.2732 67.1659 43.3413 68.2531 41.9174C68.543 40.6832 69.0988 41.0076 69.3404 41.3239V42.2732L68.5249 42.9852C68.7969 43.0643 69.3404 43.3887 69.3404 44.0533L68.0721 43.5787C67.9843 44.4421 67.8966 46.2227 68.219 46.658C68.2307 46.6721 68.2419 46.6853 68.2531 46.6976C68.2411 46.6859 68.2299 46.6727 68.219 46.658C67.9811 46.3706 67.619 45.676 67.4377 44.4094Z" fill="#3B3F55"/>
<path d="M67.9471 52.6971C67.9263 52.7448 67.9074 52.7907 67.8909 52.8347C67.8682 52.7458 67.8591 52.6305 67.9471 52.6971C68.2271 52.0546 68.8701 51.1174 69.6125 51.6479C69.7333 51.6874 70.0834 51.6953 70.5183 51.4104C70.9533 51.1256 71.4245 51.6874 71.6058 52.004H72.6023C72.9647 52.7555 73.6535 54.2111 73.5085 54.0211C73.3271 53.7837 71.7869 53.6653 71.6058 52.8347C71.4607 52.1701 71.1226 52.7159 70.9714 53.0718H69.9749C69.4311 53.1113 68.2895 53.1192 68.0722 52.8347C68.0173 52.7627 67.9767 52.7197 67.9471 52.6971Z" fill="#3B3F55"/>
<path d="M79.0354 59.1239L79.2167 61.4971L79.6695 60.6665C80.4669 60.3816 80.1226 58.5702 79.8509 57.7L79.0354 59.1239Z" fill="#3B3F55"/>
<path d="M74.5956 61.6157C74.3058 61.7105 73.75 62.9209 73.5084 63.5144C73.7258 64.0838 74.3842 63.1187 74.6863 62.5651C74.777 62.2089 74.8855 61.5209 74.5956 61.6157Z" fill="#3B3F55"/>
<path d="M60.0985 67.3118C60.0262 68.4508 59.6457 68.8939 59.4644 68.9731H61.0046C61.4577 68.7752 62.4545 68.1663 62.8169 67.3118C63.27 66.2437 62.7262 65.8879 62.3638 66.0066C62.074 66.1014 60.7329 66.9161 60.0985 67.3118Z" fill="#3B3F55"/>
<path d="M54.4813 64.5824L52.8503 65.176C52.8503 66.2202 55.0247 66.1646 56.1119 66.0066H57.0181C57.8336 65.5318 59.3013 64.6298 58.649 64.8198C57.9968 65.0098 57.0482 64.899 56.6557 64.8198H55.9309L54.4813 64.5824Z" fill="#3B3F55"/>
<path d="M61.639 64.2264L60.5515 64.4635C60.9139 65.6978 62.2129 64.8197 62.8169 64.2264H61.639Z" fill="#3B3F55"/>
<path d="M60.0985 64.8197H59.4644L59.9174 65.2942L60.0985 64.8197Z" fill="#3B3F55"/>
</g>
</g>
<defs>
<filter id="filter0_dddddd_217_2" x="-72" y="31" width="244" height="218" filterUnits="userSpaceOnUse" color-interpolation-filters="sRGB">
<feFlood flood-opacity="0" result="BackgroundImageFix"/>
<feColorMatrix in="SourceAlpha" type="matrix" values="0 0 0 0 0 0 0 0 0 0 0 0 0 0 0 0 0 0 127 0" result="hardAlpha"/>
<feOffset dy="2.76726"/>
<feGaussianBlur stdDeviation="1.1069"/>
<feColorMatrix type="matrix" values="0 0 0 0 0 0 0 0 0 0 0 0 0 0 0 0 0 0 0.07 0"/>
<feBlend mode="normal" in2="BackgroundImageFix" result="effect1_dropShadow_217_2"/>
<feColorMatrix in="SourceAlpha" type="matrix" values="0 0 0 0 0 0 0 0 0 0 0 0 0 0 0 0 0 0 127 0" result="hardAlpha"/>
<feOffset dy="6.6501"/>
<feGaussianBlur stdDeviation="2.66004"/>
<feColorMatrix type="matrix" values="0 0 0 0 0 0 0 0 0 0 0 0 0 0 0 0 0 0 0.0503198 0"/>
<feBlend mode="normal" in2="effect1_dropShadow_217_2" result="effect2_dropShadow_217_2"/>
<feColorMatrix in="SourceAlpha" type="matrix" values="0 0 0 0 0 0 0 0 0 0 0 0 0 0 0 0 0 0 127 0" result="hardAlpha"/>
<feOffset dy="12.5216"/>
<feGaussianBlur stdDeviation="5.00862"/>
<feColorMatrix type="matrix" values="0 0 0 0 0 0 0 0 0 0 0 0 0 0 0 0 0 0 0.0417275 0"/>
<feBlend mode="normal" in2="effect2_dropShadow_217_2" result="effect3_dropShadow_217_2"/>
<feColorMatrix in="SourceAlpha" type="matrix" values="0 0 0 0 0 0 0 0 0 0 0 0 0 0 0 0 0 0 127 0" result="hardAlpha"/>
<feOffset dy="22.3363"/>
<feGaussianBlur stdDeviation="8.93452"/>
<feColorMatrix type="matrix" values="0 0 0 0 0 0 0 0 0 0 0 0 0 0 0 0 0 0 0.035 0"/>
<feBlend mode="normal" in2="effect3_dropShadow_217_2" result="effect4_dropShadow_217_2"/>
<feColorMatrix in="SourceAlpha" type="matrix" values="0 0 0 0 0 0 0 0 0 0 0 0 0 0 0 0 0 0 127 0" result="hardAlpha"/>
<feOffset dy="41.7776"/>
<feGaussianBlur stdDeviation="16.711"/>
<feColorMatrix type="matrix" values="0 0 0 0 0 0 0 0 0 0 0 0 0 0 0 0 0 0 0.0282725 0"/>
<feBlend mode="normal" in2="effect4_dropShadow_217_2" result="effect5_dropShadow_217_2"/>
<feColorMatrix in="SourceAlpha" type="matrix" values="0 0 0 0 0 0 0 0 0 0 0 0 0 0 0 0 0 0 127 0" result="hardAlpha"/>
<feOffset dy="100"/>
<feGaussianBlur stdDeviation="40"/>
<feColorMatrix type="matrix" values="0 0 0 0 0 0 0 0 0 0 0 0 0 0 0 0 0 0 0.0196802 0"/>
<feBlend mode="normal" in2="effect5_dropShadow_217_2" result="effect6_dropShadow_217_2"/>
<feBlend mode="normal" in="SourceGraphic" in2="effect6_dropShadow_217_2" result="shape"/>
</filter>
<clipPath id="clip0_217_2">
<rect width="100" height="100" rx="50" fill="white"/>
</clipPath>
</defs>
</svg>
